
_____________________________________________________________________________ 
       ooooooo        ooooooo       ooo       ooooooo      ooooo      ooo
    ooo       ooo  ooo       ooo    ooo    ooo       ooo   oooooo     ooo 
    ooo       ooo  ooo      ooo     ooo    ooo       ooo   ooo ooo    ooo 
    ooo       ooo  ooo     ooo      ooo    ooo       ooo   ooo  ooo   ooo 
    ooo       ooo  oooooooooo       ooo    ooo       ooo   ooo   ooo  ooo
    ooo       ooo  ooo     ooo      ooo    ooo       ooo   ooo    ooo ooo
    ooo       ooo  ooo      ooo     ooo    ooo       ooo   ooo     oooooo
       ooooooo     ooo       ooo    ooo       ooooooo      ooo      ooooo
          
                                                 
                        ooooooo ooooooo         ooooooo       
                      ooo     ooo     ooo     ooo
                      ooo     ooo     ooo     ooo
                      ooo     ooo     ooo     ooooooooo
                      ooo     ooo     ooo     ooooooooo
                      ooo     ooo     ooo     ooo
                      ooo     ooo     ooo     ooo
                      ooo     ooo     ooo       ooooooo
______________________________________________________________________________

KEEP LOOKING FORWARD TO FUTURE RELEASES.......Please seed as long as you can!!

Source:Youtbe.com  

 
http://bayimg.com/hAKLIaAEn


General
Complete name                    :Star Trek Into Darkness-International Trailer  720p HD[Orion_Me].mp4
Format                           : MPEG-4
Format profile                   : Base Media / Version 2
Codec ID                         : mp42
File size                        : 33.6 MiB
Duration                         : 2mn 17s
Overall bit rate                 : 2 046 Kbps
Encoded date                     : UTC 2013-03-20 06:53:09
Tagged date                      : UTC 2013-03-20 06:53:09

Video
ID                               : 1
Format                           : AVC
Format/Info                      : Advanced Video Codec
Format profile                   : High@L3.1
Format settings, CABAC           : Yes
Format settings, ReFrames        : 1 frame
Codec ID                         : avc1
Codec ID/Info                    : Advanced Video Coding
Duration                         : 2mn 17s
Bit rate mode                    : Variable
Bit rate                         : 1 851 Kbps
Maximum bit rate                 : 6 866 Kbps
Width                            : 1 280 pixels
Height                           : 544 pixels
Display aspect ratio             : 2.35:1
Frame rate mode                  : Constant
Frame rate                       : 23.976 fps
Color space                      : YUV
Chroma subsampling               : 4:2:0
Bit depth                        : 8 bits
Scan type                        : Progressive
Bits/(Pixel*Frame)               : 0.111
Stream size                      : 30.4 MiB (90%)

Audio
ID                               : 2
Format                           : AAC
Format/Info                      : Advanced Audio Codec
Format version                   : Version 4
Format profile                   : LC
Format settings, SBR             : No
Codec ID                         : 40
Duration                         : 2mn 17s
Bit rate mode                    : Variable
Bit rate                         : 192 Kbps
Maximum bit rate                 : 201 Kbps
Channel(s)                       : 2 channels
Channel positions                : Front: L R
Sampling rate                    : 44.1 KHz
Stream size                      : 3.16 MiB (9%)





            --The Most Important Things In Life Aren't Free--



